<svg width="36" height="36" viewBox="0 0 36 36" fill="none" xmlns="http://www.w3.org/2000/svg">
<path d="M22.4842 6.7518C22.3006 6.6777 22.1042 6.64068 21.9063 6.64286C21.7084 6.64504 21.5129 6.68639 21.3311 6.76451C21.1492 6.84264 20.9846 6.956 20.8468 7.09805C20.709 7.2401 20.6007 7.40804 20.5281 7.59217L14.0204 23.9318L10.7121 16.2314C10.5552 15.866 10.2595 15.578 9.8902 15.4306C9.52088 15.2833 9.10815 15.2887 8.7428 15.4457C8.37746 15.6026 8.08943 15.8983 7.94208 16.2676C7.79473 16.6369 7.80012 17.0496 7.95708 17.415L12.6916 28.4352C12.8485 28.8006 13.1442 29.0886 13.5135 29.236C13.8828 29.3833 14.2956 29.3779 14.6609 29.221L25.6811 24.4865C26.0465 24.3295 26.3345 24.0339 26.4819 23.6645C26.6292 23.2952 26.6238 22.8825 26.4669 22.5171C26.3099 22.1518 26.0142 21.8638 25.6449 21.7164C25.2756 21.5691 24.8629 21.5745 24.4975 21.7314L16.7971 25.0396L23.3245 8.70789C23.3986 8.52437 23.4356 8.32798 23.4335 8.13007C23.4313 7.93216 23.3899 7.73664 23.3118 7.55479C23.2337 7.37294 23.1203 7.20836 22.9783 7.07054C22.8362 6.93272 22.6683 6.82439 22.4842 6.7518Z" fill="#FBFE56"/>
</svg>
